<svg width="98" height="30" viewBox="0 0 98 30" fill="none" xmlns="http://www.w3.org/2000/svg">
<path d="M20.9897 20.8108C19.0324 21.0325 19.7293 22.0852 20.1809 22.5203C20.9897 23.3068 22.2811 23.4027 23.3528 23.446C24.1238 23.4757 25.0432 23.273 25.7401 23.7C26.6028 24.2284 25.8749 25.3217 25.3424 25.8203C21.6772 29.2649 16.1854 30.6757 11.307 29.4081C6.42856 28.1406 2.30905 24.2581 0.792547 19.4703C-0.723959 14.6825 0.412408 9.15273 3.68941 5.33787C6.96641 1.523 12.2803 -0.452669 17.2692 0.289223C22.2582 1.03111 26.7592 4.46625 28.7718 9.07301C29.6439 11.069 30.0429 13.3527 29.6116 15.5054C29.4228 16.4514 29.0858 17.5811 28.3808 18.2568C27.5316 19.0676 26.1337 19.6852 25.3788 19.9311C23.9453 20.3566 22.4762 20.6511 20.9897 20.8108V20.8108Z" fill="#405080"/>
<path d="M38.9098 20.5972L38.8451 21.1491H40.2421C40.1981 21.541 40.0412 21.9453 39.9407 22.3455H38.7019L38.289 25.9151C38.0811 27.7089 37.3737 28.3892 36.0303 28.3892C35.8279 28.0774 35.7302 27.76 35.81 27.4357C36.3496 27.2536 36.5918 26.8741 36.7075 25.9345L37.1465 22.3469H36.3386C36.4487 21.9481 36.6139 21.5424 36.6676 21.1491L37.3076 21.0305L37.3682 20.5434C37.543 19.1042 38.5051 18.286 39.9297 18.286C40.3102 18.2784 40.6884 18.3474 41.0418 18.4888C41.0055 18.9299 40.88 19.359 40.673 19.75C40.4626 19.5999 40.2084 19.5242 39.9503 19.5347C39.3254 19.5389 38.9951 19.899 38.9098 20.5972Z" fill="#333333"/>
<path d="M40.0322 24.182C40.0322 22.4558 41.4087 20.9214 43.0246 20.9214C44.2303 20.9214 44.997 21.7852 44.9984 23.0712C44.9984 24.8098 43.6054 26.3262 42.0047 26.3262C40.8085 26.3262 40.0322 25.4818 40.0322 24.182ZM43.4182 23.2588C43.4182 22.5689 43.1829 22.2226 42.7424 22.2226C42.0638 22.2226 41.611 23.0505 41.611 24.0164C41.611 24.7063 41.8409 25.0306 42.2717 25.0306C42.953 25.0264 43.4155 24.222 43.4155 23.2588H43.4182Z" fill="#333333"/>
<path d="M49.4882 20.9285C49.4493 21.6001 49.2761 22.257 48.979 22.8603C48.1407 22.4215 47.4071 23.1059 47.2158 24.4733C47.1098 25.2294 47.0547 25.8918 47.0506 26.1374C46.5215 26.2193 45.9847 26.2387 45.4512 26.1953C45.4512 26.0022 45.5062 25.4033 45.6356 24.4733L45.9026 22.5705C46.0251 21.6984 46.0073 21.2238 45.9605 21.1009C46.3053 21.0152 46.6565 20.9575 47.0107 20.9285C47.4374 20.9285 47.6273 21.1161 47.531 22.1248C48.0155 21.3203 48.7739 20.9285 49.4882 20.9285Z" fill="#333333"/>
<path d="M56.5954 21.2498C56.5761 21.5382 56.5224 22.0584 56.422 22.7677L56.1123 24.9754C56.0297 25.5646 56.0572 26.0379 56.1123 26.1773C55.7524 26.2325 55.3899 26.2694 55.0263 26.2877C54.6037 26.2877 54.4316 26.1069 54.4894 25.3894C54.1371 25.9551 53.5851 26.3153 52.9506 26.3153C51.9871 26.3153 51.4365 25.5425 51.4365 24.3504C51.4365 22.4034 52.9189 20.9104 54.9671 20.9104C55.5268 20.9154 56.0801 21.0307 56.5954 21.2498ZM54.7909 23.1554L54.9161 22.2571C54.8124 22.2359 54.7068 22.2252 54.6009 22.2254C53.603 22.2254 53.0469 23.1126 53.0469 24.0744C53.0469 24.6663 53.2686 25.0141 53.6347 25.0141C54.1481 25.0141 54.6312 24.251 54.7909 23.1554Z" fill="#333333"/>
<path d="M62.2639 19.921L61.5551 24.9864C61.4711 25.5756 61.4986 26.0489 61.5551 26.1882C61.1952 26.2433 60.8327 26.2802 60.4691 26.2986C60.0424 26.2986 59.8717 26.1165 59.9323 25.3879C59.5799 25.9606 59.0252 26.3262 58.3852 26.3262C57.4299 26.3262 56.8711 25.5535 56.8711 24.3613C56.8711 22.4144 58.3535 20.9214 60.403 20.9214H60.5558L60.6934 19.9237C60.8146 19.0517 60.7967 18.577 60.7499 18.4542C61.0963 18.3653 61.4494 18.3049 61.8056 18.2734C62.2805 18.2762 62.4677 18.5177 62.2639 19.921ZM60.2255 23.154V23.1816L60.3631 22.235C60.2583 22.2144 60.1519 22.2038 60.0451 22.2032C59.0431 22.2032 58.4856 23.1001 58.4856 24.0729C58.4856 24.6663 58.7072 25.014 59.072 25.014C59.5772 25.014 60.0672 24.2495 60.2255 23.154Z" fill="#333333"/>
<path d="M62.5513 24.3379L62.8706 22.5179C63.0082 21.7479 62.9862 21.2567 62.9339 21.1021C63.2803 21.0133 63.6334 20.9528 63.9896 20.9214C64.4728 20.9214 64.6778 21.2194 64.4507 22.5137L64.1548 24.1971C64.0708 24.6718 64.1878 24.9505 64.6173 24.9505C65.4652 24.9505 65.9414 23.9253 65.9414 22.8808C65.9414 22.2474 65.7776 21.6003 65.4459 21.167C65.7654 21.0236 66.1092 20.9426 66.4589 20.9283C67.0247 20.9283 67.4472 21.5161 67.4472 22.533C67.4472 24.2923 66.2084 26.3331 64.0364 26.3331C62.766 26.3262 62.3297 25.5825 62.5513 24.3379Z" fill="#333333"/>
<path d="M67.6182 24.153C67.6182 22.4089 68.9946 20.9214 70.5995 20.9214C71.6539 20.9214 72.2044 21.5616 72.2044 22.4268C72.2044 23.4851 71.3786 24.1281 70.3284 24.1281C69.9225 24.126 69.5245 24.016 69.1749 23.8094C69.1655 23.8757 69.1609 23.9425 69.1611 24.0095C69.1611 24.6428 69.6401 25.0402 70.3531 25.0402C70.8325 25.0386 71.2997 24.8888 71.691 24.6111C71.6925 24.9889 71.6349 25.3647 71.5203 25.7246C71.0092 26.1177 70.3821 26.3294 69.7379 26.3262C68.4344 26.3262 67.6195 25.4818 67.6182 24.153ZM70.7674 22.5703C70.7674 22.2612 70.605 22.0874 70.2939 22.0874C69.7943 22.0874 69.4062 22.5482 69.2231 23.1333C69.4425 23.2199 69.6755 23.2666 69.9113 23.2713C70.4729 23.274 70.7674 22.9815 70.7674 22.5703Z" fill="#333333"/>
<path d="M76.4312 20.9282C76.3906 21.6002 76.2155 22.2572 75.9165 22.86C75.0782 22.4212 74.3446 23.1056 74.1533 24.473C74.0473 25.2292 73.9922 25.8915 73.9881 26.1371C73.459 26.219 72.9222 26.2384 72.3887 26.1951C72.3887 26.0019 72.4437 25.403 72.5731 24.473L72.8401 22.5702C72.9626 21.6982 72.9448 21.2235 72.898 21.1007C73.2444 21.0118 73.5975 20.9514 73.9537 20.9199C74.3804 20.9199 74.5703 21.1076 74.474 22.1162C74.9626 21.3201 75.7169 20.9282 76.4312 20.9282Z" fill="#333333"/>
<path d="M78.5877 24.1281C78.5023 24.778 78.8079 24.9684 79.1479 24.9684C79.4903 24.9498 79.8222 24.8429 80.1114 24.6579C80.1265 25.0029 80.0136 25.4168 79.8608 25.8805C79.4221 26.1721 78.9076 26.3281 78.3812 26.3289C77.5718 26.3289 76.746 25.915 76.9387 24.542L77.247 22.3522H76.4707C76.5891 21.9534 76.7653 21.5491 76.8272 21.1559L77.4961 21.0345C77.5215 20.8589 77.5677 20.687 77.6338 20.5225C77.8898 19.9182 79.3419 20.0065 79.3419 20.0065C79.1917 20.3767 79.0814 20.7621 79.013 21.1559H80.5807C80.5202 21.5478 80.344 21.9534 80.2256 22.3522H78.8299L78.5877 24.1281Z" fill="#333333"/>
<path d="M82.6374 22.5661L82.6044 22.7745L82.3291 24.4745L82.2479 24.985C82.157 25.5728 82.1832 26.0461 82.2382 26.1882C81.9065 26.2351 81.3862 26.2986 81.166 26.2986C80.6815 26.2986 80.497 26.0654 80.6567 25.0567L80.7503 24.4717L81.0256 22.7717L81.0559 22.5703C81.1935 21.6982 81.166 21.2235 81.1109 21.0994C81.4574 21.0105 81.8104 20.95 82.1667 20.9186C82.6498 20.9283 82.859 21.167 82.6374 22.5661ZM83.2293 19.2545C83.2293 19.7761 82.7365 20.1969 82.1969 20.1969C81.7331 20.1969 81.4055 19.8961 81.4055 19.4822C81.4055 18.9565 81.8872 18.5508 82.4282 18.5508C82.8948 18.5535 83.2293 18.8461 83.2293 19.2573V19.2545Z" fill="#333333"/>
<path d="M83.1245 26.0903C82.9812 25.6207 82.9496 25.124 83.0323 24.6401C83.4133 24.9447 83.8869 25.1093 84.3743 25.1064C84.7872 25.1064 85.0735 24.9574 85.0735 24.6759C85.0735 24.3944 84.7982 24.2771 84.4018 24.0854C84.0054 23.8936 83.3364 23.5776 83.3364 22.7055C83.3364 21.6099 84.3605 20.9117 85.686 20.9117C86.1032 20.9057 86.5175 20.9816 86.9055 21.1352C86.8643 21.5747 86.7351 22.0013 86.5256 22.3895C86.2361 22.1729 85.8849 22.0549 85.5236 22.0528C85.2043 22.0528 84.9262 22.1591 84.9262 22.4337C84.9262 22.7083 85.2015 22.8476 85.6323 23.0712C86.0632 23.2947 86.6757 23.6148 86.6757 24.4965C86.6757 25.6128 85.6901 26.3166 84.3454 26.3166C83.927 26.329 83.5108 26.2518 83.1245 26.0903V26.0903Z" fill="#333333"/>
<path d="M87.2217 24.153C87.2217 22.4089 88.5981 20.9214 90.203 20.9214C91.2587 20.9214 91.8079 21.5616 91.8079 22.4268C91.8079 23.4851 90.9821 24.1281 89.9332 24.1281C89.5274 24.1263 89.1293 24.0163 88.7798 23.8094C88.77 23.8756 88.7649 23.9425 88.7647 24.0095C88.7647 24.6428 89.2437 25.0402 89.9566 25.0402C90.4361 25.0389 90.9034 24.889 91.2945 24.6111C91.2974 24.989 91.2398 25.365 91.1239 25.7246C90.611 26.1197 89.9812 26.3314 89.3345 26.3262C88.0379 26.3262 87.2231 25.4818 87.2217 24.153ZM90.3709 22.5703C90.3709 22.2612 90.2099 22.0874 89.8975 22.0874C89.3992 22.0874 89.011 22.5482 88.8266 23.1333C89.046 23.2199 89.279 23.2666 89.5148 23.2713C90.0764 23.274 90.3709 22.9815 90.3709 22.5703Z" fill="#333333"/>
<path d="M96.0357 20.9282C95.9951 21.6002 95.82 22.2572 95.521 22.86C94.6813 22.4212 93.9491 23.1056 93.7564 24.473C93.6504 25.2292 93.5967 25.8915 93.5926 26.1371C93.0635 26.219 92.5267 26.2384 91.9932 26.1951C91.9932 26.0019 92.0482 25.403 92.1776 24.473L92.4446 22.5702C92.5671 21.6982 92.5492 21.2235 92.5024 21.1007C92.8484 21.0117 93.201 20.9513 93.5568 20.9199C93.9849 20.9199 94.1748 21.1076 94.0784 22.1162C94.5671 21.3201 95.3214 20.9282 96.0357 20.9282Z" fill="#333333"/>
<path d="M48.16 8.48037C48.16 12.8315 44.4478 16.2168 39.4061 16.2168C38.4804 16.2168 36.9738 16.1173 35.7812 16.044L37.7058 3.71022C37.7058 3.71022 39.2502 3.00003 42.502 3.00003C46.6156 2.99056 48.16 5.3129 48.16 8.48037ZM44.5021 9.03432C44.5021 7.2612 44.3156 6.03256 42.3036 6.03256C41.0095 6.03256 40.3766 6.42081 40.3766 6.42081L39.3093 13.2718C39.7158 13.324 40.125 13.3532 40.5349 13.3594C43.0734 13.3594 44.5021 11.4608 44.5021 9.03432V9.03432Z" fill="#333333"/>
<path d="M48.8418 12.5686C48.8418 9.59529 51.463 7.06226 54.5093 7.06226C56.5189 7.06226 57.565 8.15121 57.565 9.62605C57.565 11.4323 55.9994 12.526 53.9945 12.526C53.2297 12.5246 52.4764 12.3387 51.7983 11.9839C51.7795 12.0966 51.7701 12.2106 51.77 12.3248C51.77 13.4043 52.6815 14.0813 54.0417 14.0813C54.9428 14.0827 55.826 13.8291 56.5897 13.3498C56.6346 13.9014 56.4717 14.5335 56.2639 15.2437C55.2665 15.9242 54.0863 16.2842 52.8799 16.2759C50.3933 16.2759 48.8465 14.8389 48.8418 12.5686ZM54.8399 9.86989C54.8399 9.34435 54.5305 9.04842 53.9378 9.04842C52.9932 9.04842 52.247 9.83438 51.8975 10.831C52.3207 10.9794 52.7647 11.0593 53.2129 11.0678C54.2779 11.0678 54.8399 10.5706 54.8399 9.86989Z" fill="#333333"/>
<path d="M66.2554 15.329C66.2554 15.329 64.8243 16.0392 57.8037 16.0392L60.6375 4.31621C61.6908 3.92332 62.8032 3.71279 63.927 3.6936L61.3813 13.5014C63.2015 13.4997 65.0137 13.261 66.7725 12.7912C66.7371 13.5961 66.2554 15.329 66.2554 15.329Z" fill="#333333"/>
<path d="M82.6181 3.6936L82.2143 15.2177C81.229 15.7627 80.1209 16.0455 78.9956 16.0392L79.4679 9.06979L76.1619 15.3384C75.368 15.7871 74.4754 16.0311 73.5643 16.0486L72.2891 9.74447L70.7022 15.31C69.7162 15.7834 68.6381 16.0324 67.5449 16.0392L70.8108 4.13157C71.7477 3.8775 72.7102 3.73057 73.68 3.6936L75.4936 11.92L79.7678 4.18127C80.6917 3.89097 81.6505 3.72693 82.6181 3.6936V3.6936Z" fill="#333333"/>
<path d="M84.0186 11.2171C84.0186 6.95593 87.249 3.45703 91.3721 3.45703C94.3641 3.45703 95.9982 5.48109 95.9982 8.49232C95.9982 12.7227 92.7323 16.2737 88.5526 16.2737C85.5795 16.2761 84.0186 14.2118 84.0186 11.2171ZM92.005 9.65468C92.3191 7.84842 92.0428 6.17708 90.9234 6.06582C89.6435 5.93562 88.3849 7.8129 88.0023 10.0903C87.6859 11.9131 87.9811 13.5536 89.0815 13.6744C90.3614 13.8046 91.6224 11.9202 92.005 9.64757V9.65468Z" fill="#333333"/>
</svg>
